HIERARCHY
ROOT root
{
	OFFSET	0	13.1	24.9
	CHANNELS 6  Xposition Yposition Zposition Xrotation Yrotation Zrotation
	JOINT spine_1
	{
		OFFSET	0	9.99999	0
		CHANNELS 3  Xrotation Yrotation Zrotation
		JOINT spine_2
		{
			OFFSET	0	112	-10
			CHANNELS 3  Xrotation Yrotation Zrotation
			JOINT spine_3
			{
				OFFSET	0	206.5	19.3
				CHANNELS 3  Xrotation Yrotation Zrotation
				JOINT spine_4
				{
					OFFSET	0	110.4	14.6
					CHANNELS 3  Xrotation Yrotation Zrotation
					JOINT neck_1
					{
						OFFSET	0	71.8	-50.3
						CHANNELS 3  Xrotation Yrotation Zrotation
						JOINT neck_2
						{
							OFFSET	0	86.2	-25.8
							CHANNELS 3  Xrotation Yrotation Zrotation
							JOINT head_ee
							{
								OFFSET	0	179.8	-8.7
								CHANNELS 3  Xrotation Yrotation Zrotation
								End Site
								{
									OFFSET	1	0	0
								}
							}
						}
					}
					JOINT left_clavicle
					{
						OFFSET	-43.2	22.4	-70.8
						CHANNELS 3  Xrotation Yrotation Zrotation
						JOINT left_shoulder
						{
							OFFSET	-93.9	-5.79999	48.7
							CHANNELS 3  Xrotation Yrotation Zrotation
							JOINT left_elbow
							{
								OFFSET	-291.4	-30.8	15.2
								CHANNELS 3  Xrotation Yrotation Zrotation
								JOINT left_lowarm_twist
								{
									OFFSET	-110.7	-3.89999	13.6
									CHANNELS 3  Xrotation Yrotation Zrotation
									JOINT left_hand
									{
										OFFSET	-110.7	-3.89999	13.6
										CHANNELS 3  Xrotation Yrotation Zrotation
										JOINT left_ee
										{
											OFFSET	-80.8	-5.10001	12.1
											CHANNELS 3  Xrotation Yrotation Zrotation
											End Site
											{
												OFFSET	1	0	0
											}
										}
									}
								}
							}
						}
					}
					JOINT right_clavicle
					{
						OFFSET	43.2	22.4	-70.8
						CHANNELS 3  Xrotation Yrotation Zrotation
						JOINT right_shoulder
						{
							OFFSET	93.9	-5.79999	48.7
							CHANNELS 3  Xrotation Yrotation Zrotation
							JOINT right_elbow
							{
								OFFSET	291.4	-30.8	15.2
								CHANNELS 3  Xrotation Yrotation Zrotation
								JOINT right_lowarm_twist
								{
									OFFSET	110.7	-3.89999	13.6
									CHANNELS 3  Xrotation Yrotation Zrotation
									JOINT right_hand
									{
										OFFSET	110.7	-3.89999	13.6
										CHANNELS 3  Xrotation Yrotation Zrotation
										JOINT right_ee
										{
											OFFSET	80.8	-5.10001	12.1
											CHANNELS 3  Xrotation Yrotation Zrotation
											End Site
											{
												OFFSET	1	0	0
											}
										}
									}
								}
							}
						}
					}
				}
			}
		}
	}
	JOINT left_hip
	{
		OFFSET	-82.8	-127.5	0.300001
		CHANNELS 3  Xrotation Yrotation Zrotation
		JOINT left_knee
		{
			OFFSET	-28.2	-396.7	2.2
			CHANNELS 3  Xrotation Yrotation Zrotation
			JOINT left_ankle
			{
				OFFSET	-11.7	-411.3	35.4
				CHANNELS 3  Xrotation Yrotation Zrotation
				JOINT left_toes
				{
					OFFSET	0	-60	-88.6
					CHANNELS 3  Xrotation Yrotation Zrotation
					JOINT left_foot_ee
					{
						OFFSET	-22.5	-16.5	-42.2
						CHANNELS 3  Xrotation Yrotation Zrotation
						End Site
						{
							OFFSET	1	0	0
						}
					}
				}
			}
		}
	}
	JOINT right_hip
	{
		OFFSET	82.8	-127.5	0.300001
		CHANNELS 3  Xrotation Yrotation Zrotation
		JOINT right_knee
		{
			OFFSET	28.2	-396.7	2.2
			CHANNELS 3  Xrotation Yrotation Zrotation
			JOINT right_ankle
			{
				OFFSET	11.7	-411.3	35.4
				CHANNELS 3  Xrotation Yrotation Zrotation
				JOINT right_toes
				{
					OFFSET	0	-60	-88.6
					CHANNELS 3  Xrotation Yrotation Zrotation
					JOINT right_foot_ee
					{
						OFFSET	22.5	-16.5	-42.2
						CHANNELS 3  Xrotation Yrotation Zrotation
						End Site
						{
							OFFSET	1	0	0
						}
					}
				}
			}
		}
	}
}
MOTION
Frames: 8
Frame Time: 0.02
317.357 716.848 -1767.61 177.097 -77.0686 175.812 -3.1283 -0.690363 -0.67212 -3.12828 -0.646197 -0.714686 -3.11973 -0.435478 -0.859475 -3.12031 -0.565747 -0.77992 19.0941 -10.8224 1.50547 19.882 -17.5492 2.60235 -0.0 0.0 -0.0 8.55125 -20.0097 16.182 -2.03421 -38.3598 55.6085 1.13501 -29.3459 0.297201 39.8975 -0.343942 -4.98348 4.40126 -24.1877 18.6516 -0.0 0.0 -0.0 4.45755 -17.6233 -8.93197 -89.4525 69.1483 -3.70431 0.862676 23.139 -0.176606 -62.3197 5.57257 -5.16752 -3.70909 -5.19017 22.799 0.0 0.0 0.0 -10.3876 -19.7957 5.13265 9.04181 -0.476379 -1.30346 -25.8504 29.3574 4.15708 20.8437 -0.0 -0.0 -0.0 0.0 -0.0 4.40752 54.986 7.64842 -9.18453 -0.267814 -1.38259 42.4262 -25.9149 5.42725 40.2002 -0.0 -0.0 0.0 0.0 0.0 
327.501 715.719 -1768.02 174.845 -73.9878 173.714 -3.12443 -0.600252 -0.744418 -3.12429 -0.551668 -0.781103 -3.11616 -0.326855 -0.898674 -3.11699 -0.464677 -0.835782 13.2257 -7.89923 3.99301 13.9094 -16.2648 5.29582 -0.0 0.0 -0.0 7.69915 -18.7693 14.4009 0.326197 -37.902 55.0828 1.33856 -33.5461 0.403466 44.2911 -0.591072 -5.48814 4.0294 -18.8091 19.0862 -0.0 0.0 -0.0 4.40962 -16.5972 -8.86001 -90.5051 69.8422 -3.09141 0.665672 18.2503 -0.106924 -65.9847 6.03502 -5.24818 -3.74652 -3.27663 24.1348 0.0 0.0 0.0 -8.32505 -24.5698 5.5247 6.36226 -0.313769 -0.925083 -23.2805 30.994 3.78598 25.8654 -0.0 -0.0 -0.0 0.0 -0.0 3.42605 54.8381 9.02706 -5.27344 -0.180921 -0.788811 41.7576 -25.7924 5.36111 40.2106 -0.0 -0.0 0.0 0.0 0.0 
329.129 716.449 -1762.28 173.113 -72.3471 172.863 -3.12417 -0.464857 -0.840384 -3.12387 -0.410441 -0.868258 -3.11693 -0.16765 -0.94563 -3.11804 -0.314885 -0.907291 8.57608 -6.24439 4.48681 9.04478 -14.427 5.32238 -0.0 0.0 -0.0 6.91188 -17.8017 12.7544 1.39945 -36.5655 54.4321 1.48161 -36.2744 0.485354 47.4489 -0.792288 -5.83856 4.12608 -19.456 19.4122 -0.0 0.0 -0.0 4.85132 -16.2594 -9.56532 -90.3809 70.4036 -3.02272 0.390233 10.9411 -0.0373728 -69.3855 6.46763 -5.29632 -4.10169 0.10618 28.6602 0.0 0.0 0.0 -5.8546 -27.8306 7.83156 1.1435 -0.0487739 -0.168692 -12.6478 31.1333 2.04631 26.2247 -0.0 -0.0 -0.0 0.0 -0.0 3.6053 54.0501 9.70022 0.49001 0.0204875 0.0724042 40.1159 -25.6666 5.20127 40.2471 -0.0 -0.0 0.0 0.0 0.0 
342.437 715.539 -1758.81 174.554 -70.4165 172.473 -3.14555 -0.0833808 -0.449609 -3.14544 -0.0546024 -0.454003 -3.14485 0.0669555 -0.452346 -3.14513 -0.00532371 -0.457244 7.45856 -4.62878 5.4537 7.86069 -12.6471 6.35714 -0.0 0.0 -0.0 6.44376 -16.7006 11.8192 3.032 -35.6463 54.7143 1.6185 -38.7182 0.568698 49.8223 -0.956115 -6.09444 4.32991 -20.3387 20.3491 -0.0 0.0 -0.0 5.01488 -14.1235 -9.85437 -90.7487 69.7273 -2.30861 0.19616 5.55025 -0.0095084 -71.5472 6.74361 -5.31346 -4.65935 3.38262 34.9075 0.0 0.0 0.0 -3.17197 -28.4146 10.4416 -7.51628 0.235711 1.12862 0.869967 28.4893 -0.135292 26.8793 -0.0 -0.0 -0.0 0.0 -0.0 4.54339 54.8189 9.41501 0.89729 0.0379876 0.132452 39.6628 -23.4641 5.08806 40.1254 -0.0 -0.0 0.0 0.0 0.0 
358.442 703.887 -1754.49 175.943 -69.5021 174.137 -3.22406 0.0330736 -0.529171 -3.2239 0.0666787 -0.525994 -3.22436 0.203604 -0.489553 -3.22468 0.123735 -0.515564 6.7467 -3.88703 5.65497 7.09975 -11.591 6.52056 -0.0 0.0 -0.0 5.77723 -14.5772 10.5341 5.64115 -34.3324 55.3522 1.82467 -42.106 0.702412 51.0891 -1.04788 -6.22822 4.48091 -21.428 20.7876 -0.0 0.0 -0.0 4.54428 -11.3278 -9.06014 -89.8929 70.816 -4.41668 0.157186 4.45248 -0.00611063 -74.059 7.06464 -5.3202 -5.10133 3.18322 38.5084 0.0 0.0 0.0 -2.58768 -28.3995 10.7784 -10.821 0.292106 1.63252 6.26797 18.902 -0.918027 30.5809 -0.0 -0.0 -0.0 0.0 -0.0 4.6439 55.8814 11.227 1.11982 0.0477297 0.165209 42.6895 -23.6885 5.37476 36.1514 -0.0 -0.0 0.0 0.0 0.0 
356.133 697.315 -1746.94 176.9 -69.9921 175.858 -3.32714 0.0346557 -0.638573 -3.32692 0.0752187 -0.635074 -3.32752 0.241798 -0.592041 -3.32798 0.145264 -0.622797 9.42772 -3.29053 5.7751 9.79455 -10.6846 6.99188 -0.0 0.0 -0.0 5.66822 -14.6961 10.293 8.09795 -33.2757 55.788 1.85561 -42.5855 0.723255 52.2622 -1.13548 -6.35027 4.70062 -23.1148 21.3327 -0.0 0.0 -0.0 4.1329 -7.68933 -8.26756 -88.4121 72.9467 -7.84995 0.170912 4.83953 -0.00722242 -74.9617 7.17998 -5.31916 -5.34424 2.87715 40.4454 0.0 0.0 0.0 -0.451574 -28.3093 12.3621 -14.3457 0.320132 2.17252 11.5803 7.52434 -1.63686 33.3446 -0.0 -0.0 -0.0 0.0 -0.0 7.94363 58.6704 9.59154 1.84719 0.080462 0.272017 42.2661 -25.6517 5.40306 31.7812 -0.0 -0.0 0.0 0.0 0.0 
353.054 702.809 -1748.46 -179.01 -69.7472 -179.892 -3.42962 0.0370747 -0.828777 -3.42924 0.089735 -0.824738 -3.43013 0.307739 -0.77042 -3.43091 0.182208 -0.80935 11.0884 -2.38421 6.0755 11.4411 -9.47664 7.55058 -0.0 0.0 -0.0 6.03241 -14.9372 11.0559 11.4764 -31.7883 56.4819 1.87359 -42.8607 0.735453 52.9683 -1.18941 -6.42288 4.86529 -25.2106 21.2031 -0.0 0.0 -0.0 4.13981 -6.09302 -8.23129 -89.5518 76.0844 -7.67174 0.187715 5.31272 -0.00870919 -76.593 7.38826 -5.31263 -5.26343 1.94106 39.1607 0.0 0.0 0.0 1.51891 -28.1863 13.9547 -14.629 0.320942 2.21597 16.2561 -4.25669 -2.30392 35.6301 -0.0 -0.0 -0.0 0.0 -0.0 12.1453 59.0089 7.90649 1.66069 0.0719397 0.24467 39.4359 -26.8196 5.17512 29.302 -0.0 -0.0 0.0 0.0 0.0 
359.257 700.85 -1747.38 -179.938 -69.1139 178.498 -3.63155 0.0400258 -0.808967 -3.63119 0.0914197 -0.804781 -3.63207 0.306651 -0.749667 -3.63281 0.18441 -0.788686 13.4685 -1.10429 5.92098 13.7481 -7.3054 7.59327 -0.0 0.0 -0.0 6.43879 -14.9229 11.9289 13.1479 -29.5892 57.0936 1.87713 -42.9147 0.737863 53.7787 -1.25241 -6.50538 5.17696 -28.1048 21.4915 -0.0 0.0 -0.0 3.90187 -3.50036 -7.69227 -90.4962 75.8527 -6.71937 0.175814 4.97764 -0.00764189 -77.9851 7.5657 -5.30234 -5.19018 1.46234 38.2337 0.0 0.0 0.0 2.35244 -28.1876 13.4986 -15.0058 0.321685 2.27378 22.5909 -18.3664 -3.36705 38.7861 -0.0 -0.0 -0.0 0.0 -0.0 12.8438 59.61 7.80548 0.605421 0.0254033 0.0894322 35.2712 -27.4379 4.766 27.0823 -0.0 -0.0 0.0 0.0 0.0 
